<svg width="72" height="73" viewBox="0 0 72 73" fill="none" xmlns="http://www.w3.org/2000/svg">
<circle cx="36" cy="36.5" r="36" fill="#9672FF" fill-opacity="0.2"/>
<g clip-path="url(#clip0_76_715)">
<path d="M37.875 47.3636V45.0909H44.125V47.3636H37.875ZM37.875 43.9545V42.1932C36.8854 41.7765 36.1177 41.2182 35.5719 40.5182C35.026 39.8182 34.7521 39.0697 34.75 38.2727C34.75 37.0227 35.3625 35.953 36.5875 35.0636C37.8125 34.1742 39.2833 33.7288 41 33.7273C42.7167 33.7258 44.1885 34.1712 45.4156 35.0636C46.6427 35.9561 47.2542 37.0258 47.25 38.2727C47.25 39.0682 46.9771 39.8167 46.4312 40.5182C45.8854 41.2197 45.1167 41.778 44.125 42.1932V43.9545H37.875ZM53.5 44.9773L50.2187 42.5341C50.7917 41.8901 51.2219 41.2083 51.5094 40.4886C51.7969 39.7689 51.9396 39.0303 51.9375 38.2727C51.9354 37.5151 51.7917 36.7765 51.5062 36.0568C51.2208 35.3371 50.7917 34.6553 50.2187 34.0114L53.5 31.5682C54.5417 32.553 55.3229 33.6136 55.8437 34.75C56.3646 35.8864 56.625 37.0606 56.625 38.2727C56.625 39.4848 56.3646 40.6591 55.8437 41.7955C55.3229 42.9318 54.5417 43.9924 53.5 44.9773ZM28.5 44.9773C27.4583 43.9924 26.6771 42.9318 26.1562 41.7955C25.6354 40.6591 25.375 39.4848 25.375 38.2727C25.375 35.1288 26.899 32.4492 29.9469 30.2341C32.9948 28.0189 36.6792 26.9106 41 26.9091V24.0682L48.0312 28.6136L41 33.1591V30.3182C37.9792 30.3182 35.401 31.0947 33.2656 32.6477C31.1302 34.2008 30.0625 36.0758 30.0625 38.2727C30.0625 39.0303 30.2062 39.7689 30.4937 40.4886C30.7812 41.2083 31.2104 41.8901 31.7812 42.5341L28.5 44.9773ZM22.25 61C20.5312 61 19.0604 60.5553 17.8375 59.6659C16.6146 58.7765 16.0021 57.7061 16 56.4545V15.5455C16 14.2955 16.6125 13.2258 17.8375 12.3364C19.0625 11.447 20.5333 11.0015 22.25 11H59.75C61.4687 11 62.9406 11.4455 64.1656 12.3364C65.3906 13.2273 66.0021 14.297 66 15.5455V56.4545C66 57.7045 65.3885 58.775 64.1656 59.6659C62.9427 60.5568 61.4708 61.0015 59.75 61H22.25ZM22.25 49.6364H59.75V22.3636H22.25V49.6364ZM22.25 54.1818V56.4545H59.75V54.1818H22.25ZM22.25 17.8182H59.75V15.5455H22.25V17.8182Z" fill="#5390D9" fill-opacity="0.5"/>
</g>
<defs>
<clipPath id="clip0_76_715">
<rect width="40" height="40" fill="white" transform="translate(16 16)"/>
</clipPath>
</defs>
</svg>
