<svg width="72" height="73" viewBox="0 0 72 73" fill="none" xmlns="http://www.w3.org/2000/svg">
<circle cx="36" cy="36.5" r="36" fill="#FAE0E0"/>
<path d="M43.788 18.175C43.788 17.6778 43.9856 17.2009 44.3372 16.8492C44.6888 16.4976 45.1657 16.3 45.663 16.3H51.913C52.4103 16.3 52.8872 16.4976 53.2388 16.8492C53.5905 17.2009 53.788 17.6778 53.788 18.175V24.425C53.788 24.9223 53.5905 25.3992 53.2388 25.7509C52.8872 26.1025 52.4103 26.3 51.913 26.3C51.4157 26.3 50.9388 26.1025 50.5872 25.7509C50.2356 25.3992 50.038 24.9223 50.038 24.425V22.7L38.863 33.875C38.5114 34.2262 38.0349 34.4234 37.538 34.4234C37.0411 34.4234 36.5646 34.2262 36.213 33.875L30.038 27.7L19.488 38.25C19.3163 38.4343 19.1093 38.582 18.8793 38.6845C18.6493 38.787 18.401 38.8421 18.1493 38.8465C17.8975 38.851 17.6475 38.8047 17.414 38.7104C17.1805 38.6161 16.9684 38.4757 16.7904 38.2976C16.6123 38.1196 16.472 37.9075 16.3777 37.674C16.2834 37.4406 16.2371 37.1905 16.2415 36.9387C16.2459 36.687 16.301 36.4387 16.4035 36.2087C16.506 35.9787 16.6538 35.7717 16.838 35.6L28.713 23.725C29.0646 23.3739 29.5411 23.1767 30.038 23.1767C30.5349 23.1767 31.0114 23.3739 31.363 23.725L37.538 29.9L47.388 20.05H45.663C45.1657 20.05 44.6888 19.8525 44.3372 19.5009C43.9856 19.1492 43.788 18.6723 43.788 18.175ZM18.163 46.3C18.6603 46.3 19.1372 46.4976 19.4888 46.8492C19.8404 47.2009 20.038 47.6778 20.038 48.175V54.425C20.038 54.9223 19.8404 55.3992 19.4888 55.7509C19.1372 56.1025 18.6603 56.3 18.163 56.3C17.6657 56.3 17.1888 56.1025 16.8372 55.7509C16.4855 55.3992 16.288 54.9223 16.288 54.425V48.175C16.288 47.6778 16.4855 47.2009 16.8372 46.8492C17.1888 46.4976 17.6657 46.3 18.163 46.3ZM30.038 40.675C30.038 40.1778 29.8405 39.7009 29.4888 39.3492C29.1372 38.9976 28.6603 38.8 28.163 38.8C27.6657 38.8 27.1888 38.9976 26.8372 39.3492C26.4855 39.7009 26.288 40.1778 26.288 40.675V54.425C26.288 54.9223 26.4855 55.3992 26.8372 55.7509C27.1888 56.1025 27.6657 56.3 28.163 56.3C28.6603 56.3 29.1372 56.1025 29.4888 55.7509C29.8405 55.3992 30.038 54.9223 30.038 54.425V40.675ZM38.163 43.8C38.6603 43.8 39.1372 43.9976 39.4888 44.3492C39.8405 44.7009 40.038 45.1778 40.038 45.675V54.425C40.038 54.9223 39.8405 55.3992 39.4888 55.7509C39.1372 56.1025 38.6603 56.3 38.163 56.3C37.6657 56.3 37.1888 56.1025 36.8372 55.7509C36.4855 55.3992 36.288 54.9223 36.288 54.425V45.675C36.288 45.1778 36.4855 44.7009 36.8372 44.3492C37.1888 43.9976 37.6657 43.8 38.163 43.8ZM50.038 35.675C50.038 35.1778 49.8405 34.7009 49.4888 34.3492C49.1372 33.9976 48.6603 33.8 48.163 33.8C47.6657 33.8 47.1888 33.9976 46.8372 34.3492C46.4856 34.7009 46.288 35.1778 46.288 35.675V54.425C46.288 54.9223 46.4856 55.3992 46.8372 55.7509C47.1888 56.1025 47.6657 56.3 48.163 56.3C48.6603 56.3 49.1372 56.1025 49.4888 55.7509C49.8405 55.3992 50.038 54.9223 50.038 54.425V35.675Z" fill="#CD9494"/>
</svg>
