<svg width="72" height="73" viewBox="0 0 72 73" fill="none" xmlns="http://www.w3.org/2000/svg">
<circle cx="36" cy="36.5" r="36" fill="#E6FFF1"/>
<path d="M51.5556 36.5C51.5556 40.5889 48.2222 43.9222 44.1333 43.9222C42.1556 43.9222 40.3111 43.1667 38.9111 41.7444L37.5778 40.4111L39.9333 38.0778C40.5333 38.7222 41.2667 39.3889 41.2667 39.3889C42.0222 40.1667 43.0667 40.5889 44.1556 40.5889C46.4 40.5889 48.2222 38.7222 48.2222 36.5C48.2222 34.2778 46.4 32.4111 44.1556 32.4111C43.0667 32.4111 42.0222 32.8556 41.2667 33.6111L33.1111 41.7444C31.7111 43.1667 29.8444 43.9222 27.8667 43.9222C23.7778 43.9222 20.4444 40.5889 20.4444 36.5C20.4444 32.4111 23.7778 29.0778 27.8667 29.0778C29.8444 29.0778 31.7111 29.8333 33.1111 31.2556L34.4222 32.5889L32.0667 34.9444L30.7556 33.6111C29.9778 32.8556 28.9556 32.4111 27.8667 32.4111C25.6 32.4111 23.7778 34.2778 23.7778 36.5C23.7778 38.7222 25.6 40.5889 27.8667 40.5889C28.9556 40.5889 29.9778 40.1667 30.7556 39.3889L38.9111 31.2556C40.3111 29.8333 42.1556 29.0778 44.1333 29.0778C48.2222 29.0778 51.5556 32.4111 51.5556 36.5ZM56 20.9444L55 36.5L56 52.0556C56 54.5222 54.0222 56.5 51.5556 56.5L36 55.5L20.4444 56.5C19.2657 56.5 18.1352 56.0317 17.3017 55.1983C16.4683 54.3648 16 53.2343 16 52.0556L17 36.5L16 20.9444C16 18.4778 17.9778 16.5 20.4444 16.5L36 17.5L51.5556 16.5C52.7343 16.5 53.8648 16.9683 54.6983 17.8017C55.5317 18.6352 56 19.7657 56 20.9444ZM51.5556 20.9444H20.4444V52.0556H51.5556V20.9444Z" fill="#8BE4CF"/>
</svg>
