<svg width="72" height="73" viewBox="0 0 72 73" fill="none" xmlns="http://www.w3.org/2000/svg">
<circle cx="36" cy="36.5" r="36" fill="#6FC446" fill-opacity="0.2"/>
<path d="M21 21H51V28.3083H47.6667V24.3333H24.3333V39.3333H31.555V42.6667H21V21Z" fill="#6FC446"/>
<path d="M37.1399 33.1449C38.5966 34.6866 39.8383 35.9999 42.6666 35.9999H45.9999C46.884 35.9999 47.7318 36.3511 48.357 36.9762C48.9821 37.6014 49.3333 38.4492 49.3333 39.3333V40.9999C49.3333 41.585 49.1792 42.1598 48.8867 42.6665C48.5941 43.1733 48.1733 43.594 47.6666 43.8866V52.6666H42.6666V39.3333C38.3049 39.3333 36.0733 36.9166 34.5999 35.3249C34.4002 35.1055 34.1963 34.8899 33.9883 34.6783L36.3449 32.3216C36.6216 32.5994 36.8866 32.8738 37.1399 33.1449ZM47.6666 31.8333C47.6666 32.4963 47.4032 33.1322 46.9344 33.601C46.4655 34.0699 45.8297 34.3333 45.1666 34.3333C44.5036 34.3333 43.8677 34.0699 43.3988 33.601C42.93 33.1322 42.6666 32.4963 42.6666 31.8333C42.6666 31.1702 42.93 30.5343 43.3988 30.0655C43.8677 29.5966 44.5036 29.3333 45.1666 29.3333C45.8297 29.3333 46.4655 29.5966 46.9344 30.0655C47.4032 30.5343 47.6666 31.1702 47.6666 31.8333Z" fill="#6FC446"/>
</svg>
