<svg width="72" height="73" viewBox="0 0 72 73" fill="none" xmlns="http://www.w3.org/2000/svg">
<circle cx="36" cy="36.5" r="36" fill="#EAE8FC"/>
<path d="M43.87 51.766L39.7928 47.6888L37.5732 49.9084L43.87 56.2052L56.4634 43.6117L54.2438 41.3921L43.87 51.766Z" fill="#74A3E9"/>
<path d="M34.4257 38.2438C36.1645 38.2438 37.5741 36.8342 37.5741 35.0954C37.5741 33.3566 36.1645 31.947 34.4257 31.947C32.6869 31.947 31.2773 33.3566 31.2773 35.0954C31.2773 36.8342 32.6869 38.2438 34.4257 38.2438Z" fill="#74A3E9"/>
<path d="M34.4256 44.5403C32.5575 44.5403 30.7314 43.9864 29.1782 42.9486C27.6249 41.9107 26.4143 40.4356 25.6994 38.7097C24.9846 36.9839 24.7975 35.0848 25.162 33.2526C25.5264 31.4204 26.426 29.7375 27.7469 28.4166C29.0678 27.0956 30.7507 26.1961 32.5829 25.8316C34.4151 25.4672 36.3142 25.6542 38.04 26.3691C39.7659 27.084 41.241 28.2946 42.2789 29.8478C43.3167 31.4011 43.8706 33.2272 43.8706 35.0953C43.8677 37.5994 42.8717 40.0001 41.101 41.7707C39.3304 43.5414 36.9297 44.5374 34.4256 44.5403ZM34.4256 28.7985C33.1802 28.7985 31.9628 29.1678 30.9273 29.8597C29.8918 30.5516 29.0847 31.535 28.6081 32.6856C28.1316 33.8362 28.0069 35.1022 28.2498 36.3237C28.4928 37.5451 29.0925 38.6671 29.9731 39.5477C30.8537 40.4283 31.9757 41.028 33.1971 41.271C34.4186 41.514 35.6846 41.3893 36.8352 40.9127C37.9858 40.4361 38.9692 39.629 39.6611 38.5935C40.353 37.558 40.7223 36.3406 40.7223 35.0953C40.7202 33.4259 40.0561 31.8255 38.8757 30.6451C37.6953 29.4647 36.0949 28.8006 34.4256 28.7985Z" fill="#74A3E9"/>
<path d="M53.3155 35.0953C53.3155 31.3592 52.2076 27.7069 50.1319 24.6005C48.0563 21.494 45.106 19.0728 41.6543 17.643C38.2026 16.2133 34.4044 15.8392 30.7401 16.5681C27.0757 17.2969 23.7098 19.0961 21.068 21.7379C18.4261 24.3797 16.627 27.7457 15.8981 31.41C15.1693 35.0743 15.5433 38.8725 16.9731 42.3243C18.4028 45.776 20.824 48.7262 23.9305 50.8019C27.037 52.8776 30.6892 53.9855 34.4253 53.9855V50.8371C31.3119 50.8371 28.2684 49.9139 25.6797 48.1841C23.0909 46.4544 21.0733 43.9959 19.8818 41.1194C18.6903 38.243 18.3786 35.0778 18.986 32.0242C19.5934 28.9706 21.0927 26.1657 23.2942 23.9641C25.4957 21.7626 28.3007 20.2633 31.3543 19.6559C34.4079 19.0485 37.573 19.3603 40.4495 20.5517C43.3259 21.7432 45.7844 23.7609 47.5142 26.3496C49.2439 28.9383 50.1672 31.9818 50.1672 35.0953H53.3155Z" fill="#74A3E9"/>
</svg>
