<svg width="73" height="73" viewBox="0 0 73 73" fill="none" xmlns="http://www.w3.org/2000/svg">
<circle cx="36.333" cy="36.5" r="36" fill="#F1AD71" fill-opacity="0.2"/>
<path d="M49.25 52C45.7778 52 42.3472 51.2433 38.9583 49.73C35.5694 48.2167 32.4861 46.0706 29.7083 43.2917C26.9306 40.5128 24.785 37.4294 23.2717 34.0417C21.7583 30.6539 21.0011 27.2233 21 23.75C21 23.25 21.1667 22.8333 21.5 22.5C21.8333 22.1667 22.25 22 22.75 22H29.5C29.8889 22 30.2361 22.1322 30.5417 22.3967C30.8472 22.6611 31.0278 22.9733 31.0833 23.3333L32.1667 29.1667C32.2222 29.6111 32.2083 29.9861 32.125 30.2917C32.0417 30.5972 31.8889 30.8611 31.6667 31.0833L27.625 35.1667C28.1806 36.1944 28.84 37.1872 29.6033 38.145C30.3667 39.1028 31.2072 40.0267 32.125 40.9167C32.9861 41.7778 33.8889 42.5767 34.8333 43.3133C35.7778 44.05 36.7778 44.7233 37.8333 45.3333L41.75 41.4167C42 41.1667 42.3267 40.9794 42.73 40.855C43.1333 40.7306 43.5289 40.6956 43.9167 40.75L49.6667 41.9167C50.0556 42.0278 50.375 42.2294 50.625 42.5217C50.875 42.8139 51 43.14 51 43.5V50.25C51 50.75 50.8333 51.1667 50.5 51.5C50.1667 51.8333 49.75 52 49.25 52Z" fill="#F1AD71"/>
</svg>
