<svg width="80" height="101" viewBox="0 0 80 101" fill="none" xmlns="http://www.w3.org/2000/svg">
<path d="M32.3789 59.8862L43.0626 65.6834L21.3674 101L15.1405 87.948L32.3789 59.8862Z" fill="#19632D"/>
<path d="M32.3789 59.8862L21.6952 54.089L5.18809e-05 89.4057L15.1405 87.948L32.3789 59.8862Z" fill="#1C4520"/>
<path d="M47.6211 59.8862L36.9374 65.6834L58.6326 101L64.8595 87.948L47.6211 59.8862Z" fill="#19632D"/>
<path d="M47.6211 59.8862L58.3048 54.089L79.9999 89.4057L64.8595 87.948L47.6211 59.8862Z" fill="#1C4520"/>
<path d="M39.983 70.6385C60.5436 70.6385 77.2649 54.9662 77.2649 35.5692C77.2649 16.1723 60.5436 0.5 39.983 0.5C19.4225 0.5 2.70117 16.1723 2.70117 35.5692C2.70117 54.9662 19.4225 70.6385 39.983 70.6385Z" fill="#E3E3E3" stroke="#404040"/>
<ellipse cx="39.9831" cy="35.5689" rx="28.7116" ry="26.9844" fill="#595959"/>
<path d="M40.1374 16.7534L46.3453 28.4224L58.7611 29.881L50.2356 38.8661L52.5532 51.7602L40.1374 45.9258L27.7216 51.7602L30.0599 38.8661L21.5137 29.881L33.9295 28.4224L40.1374 16.7534Z" fill="url(#paint0_linear_89_969)"/>
<defs>
<linearGradient id="paint0_linear_89_969" x1="40.1374" y1="16.7534" x2="40.1374" y2="51.7602" gradientUnits="userSpaceOnUse">
<stop stop-color="#F1F5F5"/>
<stop offset="0.0001" stop-color="white"/>
<stop offset="1" stop-color="#F1F5F5"/>
</linearGradient>
</defs>
</svg>
